<?xml version="1.0" standalone="no"?>
<!DOCTYPE svg PUBLIC "-//W3C//DTD SVG 20010904//EN"
 "http://www.w3.org/TR/2001/REC-SVG-20010904/DTD/svg10.dtd">
<svg version="1.0" xmlns="http://www.w3.org/2000/svg"
 width="570.000000pt" height="570.000000pt" viewBox="0 0 570.000000 570.000000"
 preserveAspectRatio="xMidYMid meet">
<metadata>
Created by potrace 1.11, written by Peter Selinger 2001-2013
</metadata>
<g transform="translate(0.000000,570.000000) scale(0.100000,-0.100000)"
fill="#000000" stroke="none">
<path d="M2492 5690 c-630 -85 -1191 -356 -1640 -794 -295 -287 -476 -560
-667 -1001 -45 -104 -130 -405 -150 -535 -4 -25 -9 -55 -11 -66 -17 -98 -22
-187 -22 -434 -1 -295 7 -389 49 -590 11 -52 21 -99 23 -105 2 -5 6 -23 10
-40 48 -194 191 -541 289 -700 182 -296 354 -506 578 -704 93 -82 95 -84 184
-152 64 -49 192 -133 290 -191 243 -142 598 -275 860 -322 17 -3 41 -8 55 -11
14 -3 43 -8 65 -11 22 -3 51 -7 65 -10 110 -19 511 -26 660 -11 64 6 206 28
275 42 11 2 34 7 50 10 122 24 378 106 520 168 407 175 779 453 1060 792 28
33 52 62 55 65 3 3 28 37 56 75 247 340 412 712 494 1110 17 83 22 113 36 207
27 190 26 537 -2 763 -7 58 -42 238 -64 325 -69 273 -206 585 -367 835 -43 66
-179 254 -192 265 -3 3 -24 25 -45 50 -434 501 -1048 847 -1686 950 -41 7 -84
15 -95 18 -35 9 -667 10 -733 2z"/>
</g>
</svg>
